<svg xmlns="http://www.w3.org/2000/svg" viewBox="0 0 1200 560" role="img" aria-labelledby="title desc">
  <title id="title">Activation and obligation pair across a Priors run</title>
  <desc id="desc">Run-start injects instructions, verify-phase requires dispositions, propose-gate validates candidates, and commit refuses if required work remains incomplete.</desc>
  <defs>
    <marker id="arrow" viewBox="0 0 10 10" refX="9" refY="5" markerWidth="7" markerHeight="7" orient="auto">
      <path d="M0 0 L10 5 L0 10 Z" fill="#173B34"/>
    </marker>
  </defs>
  <rect width="1200" height="560" rx="28" fill="#F4F0E5"/>
  <text x="52" y="50" font-family="ui-monospace, SFMono-Regular, Menlo, monospace" font-size="14" letter-spacing="3" fill="#47645C">ACTIVATION × OBLIGATION</text>
  <text x="52" y="90" font-family="system-ui, -apple-system, sans-serif" font-size="29" font-weight="700" fill="#173B34">When memory enters determines what the run must do.</text>

  <g stroke="#8DA49C" stroke-width="3" fill="none" marker-end="url(#arrow)">
    <path d="M214 300 H466"/>
    <path d="M534 300 H786"/>
    <path d="M854 300 H1036"/>
  </g>

  <g font-family="system-ui, -apple-system, sans-serif">
    <g transform="translate(180 0)">
      <circle cx="0" cy="300" r="24" fill="#2F7967"/>
      <rect x="-125" y="135" width="250" height="122" rx="18" fill="#E1ECE7"/>
      <text x="0" y="169" text-anchor="middle" font-size="18" font-weight="700" fill="#173B34">run-start</text>
      <text x="0" y="197" text-anchor="middle" font-size="14" fill="#47645C">inject-as-instruction</text>
      <path d="M-74 220 H74" stroke="#8DA49C"/>
      <text x="0" y="243" text-anchor="middle" font-size="13" font-weight="700" fill="#173B34">Shape the work before it begins</text>
      <text x="0" y="352" text-anchor="middle" font-size="13" fill="#47645C">calibration · behavioral</text>
    </g>

    <g transform="translate(500 0)">
      <circle cx="0" cy="300" r="24" fill="#D95D24"/>
      <rect x="-125" y="135" width="250" height="122" rx="18" fill="#F7E0D3"/>
      <text x="0" y="169" text-anchor="middle" font-size="18" font-weight="700" fill="#173B34">verify-phase</text>
      <text x="0" y="197" text-anchor="middle" font-size="14" fill="#47645C">disposition-required</text>
      <path d="M-74 220 H74" stroke="#C9987E"/>
      <text x="0" y="243" text-anchor="middle" font-size="13" font-weight="700" fill="#173B34">Close old work before discovery</text>
      <text x="0" y="352" text-anchor="middle" font-size="13" fill="#47645C">conclusion</text>
    </g>

    <g transform="translate(820 0)">
      <circle cx="0" cy="300" r="24" fill="#E9C46A"/>
      <rect x="-125" y="135" width="250" height="122" rx="18" fill="#F3E8BC"/>
      <text x="0" y="169" text-anchor="middle" font-size="18" font-weight="700" fill="#173B34">propose-gate</text>
      <text x="0" y="197" text-anchor="middle" font-size="14" fill="#47645C">veto-only</text>
      <path d="M-74 220 H74" stroke="#C4A64A"/>
      <text x="0" y="243" text-anchor="middle" font-size="13" font-weight="700" fill="#173B34">Reject forbidden rediscovery</text>
      <text x="0" y="352" text-anchor="middle" font-size="13" fill="#47645C">coverage</text>
    </g>

    <g transform="translate(1080 0)">
      <circle cx="0" cy="300" r="30" fill="#173B34"/>
      <path d="M-11 300 l8 8 17-20" fill="none" stroke="#FFFDFC" stroke-width="4" stroke-linecap="round"/>
      <text x="0" y="352" text-anchor="middle" font-size="14" font-weight="700" fill="#173B34">commit</text>
    </g>
  </g>

  <path d="M1080 383 C1080 484 500 491 500 390" fill="none" stroke="#D95D24" stroke-width="2.5" stroke-dasharray="8 7" marker-end="url(#arrow)"/>
  <rect x="336" y="420" width="488" height="76" rx="16" fill="#FFFDFC" stroke="#D7C8B9" stroke-width="2"/>
  <text x="580" y="450" text-anchor="middle" font-family="system-ui, -apple-system, sans-serif" font-size="15" font-weight="700" fill="#D95D24">Open verification item?</text>
  <text x="580" y="475" text-anchor="middle" font-family="system-ui, -apple-system, sans-serif" font-size="14" fill="#47645C">The keeper refuses both new proposals and final commit.</text>
</svg>
