<svg xmlns="http://www.w3.org/2000/svg" viewBox="0 0 1200 680" role="img" aria-labelledby="title desc">
  <title id="title">Priors turns repeated agent reviews into a converging process</title>
  <desc id="desc">A first agent run records findings, human decisions, and learned procedures in the Priors ledger. The next run must check that settled state before proposing genuinely new work.</desc>
  <defs>
    <marker id="arrow" viewBox="0 0 10 10" refX="9" refY="5" markerWidth="8" markerHeight="8" orient="auto-start-reverse">
      <path d="M 0 0 L 10 5 L 0 10 z" fill="#173B34"/>
    </marker>
    <filter id="shadow" x="-10%" y="-10%" width="120%" height="130%">
      <feDropShadow dx="0" dy="5" stdDeviation="6" flood-color="#173B34" flood-opacity="0.13"/>
    </filter>
  </defs>

  <rect width="1200" height="680" rx="28" fill="#F4F0E5"/>
  <text x="56" y="55" font-family="ui-monospace, SFMono-Regular, Menlo, monospace" font-size="14" letter-spacing="3" fill="#47645C">AGENT MEMORY THAT CLOSES THE LOOP</text>
  <text x="56" y="104" font-family="system-ui, -apple-system, sans-serif" font-size="34" font-weight="700" fill="#173B34">The next run starts from settled state.</text>
  <text x="56" y="136" font-family="system-ui, -apple-system, sans-serif" font-size="17" fill="#47645C">Not from a blank prompt. Not from approximate retrieval. From the exact history the run must account for.</text>

  <g filter="url(#shadow)">
    <rect x="56" y="184" width="286" height="318" rx="20" fill="#FFFDFC" stroke="#B9C8C2" stroke-width="2"/>
    <rect x="457" y="168" width="286" height="350" rx="20" fill="#173B34"/>
    <rect x="858" y="184" width="286" height="318" rx="20" fill="#FFFDFC" stroke="#B9C8C2" stroke-width="2"/>
  </g>

  <g font-family="system-ui, -apple-system, sans-serif">
    <circle cx="88" cy="218" r="16" fill="#D95D24"/>
    <text x="88" y="224" text-anchor="middle" font-size="15" font-weight="700" fill="#FFFDFC">1</text>
    <text x="116" y="224" font-size="20" font-weight="700" fill="#173B34">Review the world</text>
    <text x="84" y="266" font-size="15" fill="#47645C">Agent inspects code, a contract,</text>
    <text x="84" y="289" font-size="15" fill="#47645C">a workflow, or another target.</text>

    <rect x="84" y="326" width="230" height="50" rx="10" fill="#F7E0D3"/>
    <text x="102" y="348" font-size="14" font-weight="700" fill="#173B34">12 findings</text>
    <text x="102" y="367" font-size="13" fill="#47645C">specific, scoped, falsifiable</text>
    <rect x="84" y="388" width="230" height="50" rx="10" fill="#E1ECE7"/>
    <text x="102" y="410" font-size="14" font-weight="700" fill="#173B34">2 tool lessons</text>
    <text x="102" y="429" font-size="13" fill="#47645C">procedures worth reusing</text>
    <text x="84" y="471" font-size="14" font-weight="700" fill="#D95D24">The agent proposes.</text>

    <circle cx="489" cy="202" r="16" fill="#E9C46A"/>
    <text x="489" y="208" text-anchor="middle" font-size="15" font-weight="700" fill="#173B34">2</text>
    <text x="520" y="198" font-size="16" font-weight="700" fill="#FFFDFC">Priors records</text>
    <text x="520" y="219" font-size="16" font-weight="700" fill="#FFFDFC">consequences</text>
    <text x="489" y="249" font-size="14" letter-spacing="2" fill="#BFDCCF">APPEND-ONLY LEDGER</text>

    <rect x="489" y="270" width="222" height="54" rx="10" fill="#284E45"/>
    <circle cx="511" cy="297" r="7" fill="#D95D24"/>
    <text x="529" y="293" font-size="14" font-weight="700" fill="#FFFDFC">Observations</text>
    <text x="529" y="311" font-size="12.5" fill="#BFDCCF">must be re-checked</text>
    <rect x="489" y="336" width="222" height="54" rx="10" fill="#284E45"/>
    <path d="M505 363 l5 5 10-12" fill="none" stroke="#E9C46A" stroke-width="3" stroke-linecap="round" stroke-linejoin="round"/>
    <text x="529" y="359" font-size="14" font-weight="700" fill="#FFFDFC">Human calls</text>
    <text x="529" y="377" font-size="12.5" fill="#BFDCCF">cannot be silently re-argued</text>
    <rect x="489" y="402" width="222" height="54" rx="10" fill="#284E45"/>
    <path d="M505 437 h14 M512 423 v21" stroke="#A9C7D8" stroke-width="3" stroke-linecap="round"/>
    <text x="529" y="425" font-size="14" font-weight="700" fill="#FFFDFC">Learned procedures</text>
    <text x="529" y="443" font-size="12.5" fill="#BFDCCF">return as instructions</text>
    <text x="600" y="490" text-anchor="middle" font-size="14" font-weight="700" fill="#E9C46A">The ledger disposes.</text>

    <circle cx="890" cy="218" r="16" fill="#2F7967"/>
    <text x="890" y="224" text-anchor="middle" font-size="15" font-weight="700" fill="#FFFDFC">3</text>
    <text x="918" y="214" font-size="18" font-weight="700" fill="#173B34">Begin from</text>
    <text x="918" y="236" font-size="18" font-weight="700" fill="#173B34">settled state</text>
    <text x="886" y="270" font-size="14" font-weight="700" fill="#173B34">BEFORE NEW ADVICE</text>

    <g font-size="14" fill="#173B34">
      <circle cx="895" cy="300" r="10" fill="#BFDCCF"/><path d="M890 300 l4 4 7-8" fill="none" stroke="#173B34" stroke-width="2"/>
      <text x="918" y="305">Load exact applicable priors</text>
      <circle cx="895" cy="340" r="10" fill="#BFDCCF"/><path d="M890 340 l4 4 7-8" fill="none" stroke="#173B34" stroke-width="2"/>
      <text x="918" y="345">Check old findings first</text>
      <circle cx="895" cy="380" r="10" fill="#BFDCCF"/><path d="M890 380 l4 4 7-8" fill="none" stroke="#173B34" stroke-width="2"/>
      <text x="918" y="385">Honor human decisions</text>
      <circle cx="895" cy="420" r="10" fill="#BFDCCF"/><path d="M890 420 l4 4 7-8" fill="none" stroke="#173B34" stroke-width="2"/>
      <text x="918" y="425">Propose only genuinely new work</text>
    </g>
    <text x="886" y="471" font-size="14" font-weight="700" fill="#2F7967">The run cannot commit unfinished.</text>
  </g>

  <path d="M348 343 C390 343 403 343 449 343" fill="none" stroke="#173B34" stroke-width="3" marker-end="url(#arrow)"/>
  <path d="M749 343 C791 343 804 343 850 343" fill="none" stroke="#173B34" stroke-width="3" marker-end="url(#arrow)"/>

  <rect x="56" y="556" width="1088" height="78" rx="16" fill="#E1ECE7"/>
  <text x="84" y="587" font-family="ui-monospace, SFMono-Regular, Menlo, monospace" font-size="13" letter-spacing="2" fill="#47645C">A CONVERGING REVIEW</text>
  <g font-family="system-ui, -apple-system, sans-serif" font-size="17" font-weight="700" fill="#173B34">
    <text x="84" y="615">✓ 5 fixed</text>
    <text x="268" y="615">→ 6 carried</text>
    <text x="482" y="615">? 1 needs your call</text>
    <text x="746" y="615">+ 2 genuinely new</text>
  </g>
  <rect x="983" y="578" width="133" height="34" rx="17" fill="#173B34"/>
  <text x="1049.5" y="601" text-anchor="middle" font-family="system-ui, -apple-system, sans-serif" font-size="14" font-weight="700" fill="#FFFDFC">RUN COMMITTED</text>
</svg>
